<?xml version="1.0" encoding="utf-8"?>
<!-- Generator: Adobe Illustrator 16.0.0, SVG Export Plug-In . SVG Version: 6.00 Build 0)  -->
<!DOCTYPE svg PUBLIC "-//W3C//DTD SVG 1.1//EN" "http://www.w3.org/Graphics/SVG/1.1/DTD/svg11.dtd">
<svg version="1.1" id="Layer_1" xmlns="http://www.w3.org/2000/svg" xmlns:xlink="http://www.w3.org/1999/xlink" x="0px" y="0px"
	 width="25px" height="50px" viewBox="0 0 25 50" enable-background="new 0 0 25 50" xml:space="preserve">
<polygon fill="#28A0DA" points="2,47.873 22.97,35.766 22.97,26.104 2,38.212 "/>
<polygon fill="#28A0DA" points="2,23.75 22.97,11.643 22.97,1.982 2,14.089 "/>
<polygon fill="#6DCFF6" points="22.97,35.879 2,23.772 2,14.111 22.97,26.218 "/>
<polygon fill="#27A0DA" points="39.764,74.509 60.733,62.401 60.733,52.74 39.764,64.848 "/>
<polygon fill="#27A0DA" points="39.764,50.386 60.733,38.278 60.733,28.618 39.764,40.725 "/>
<polygon fill="#E6E6E5" points="60.733,62.515 39.764,50.407 39.764,40.747 60.733,52.854 "/>
<polygon fill="#28A0DA" points="42.648,23.592 63.618,11.484 63.618,1.822 42.648,13.931 "/>
<polygon fill="#28A0DA" points="42.648,-0.531 63.618,-12.638 63.618,-22.299 42.648,-10.192 "/>
<polygon fill="#70BAD8" points="63.618,11.598 42.648,-0.509 42.648,-10.17 63.618,1.937 "/>
<polygon fill="#28A0DA" points="92.773,49.696 113.743,37.589 113.743,27.928 92.773,40.035 "/>
<polygon fill="#28A0DA" points="92.773,25.573 113.743,13.466 113.743,3.805 92.773,15.912 "/>
<polygon fill="#6DCFF6" points="113.743,37.702 92.773,25.595 92.773,15.934 113.743,28.041 "/>
</svg>
